# xmcd
#
# Track frame offsets:
#	150
#	13765
#	26440
#	40735
#	54548
#	61692
#	75638
#	88008
#	101249
#	111542
#	124301
#	138896
#	151863
#	165759
#	179959
#	191305
#	204931
#	216971
#	228000
#	241638
#	253772
#	265796
#	280349
#	291151
#	304368
#	317773
#	330649
#	340843
#
# Disc length: 4707 seconds
#
# Revision: 1
# Processed by: cddbd v1.5.2PL0 Copyright (c) Steve Scherf et al.
# Submitted via: audiograbber 1.83.01
#
DISCID=8912611c
DTITLE=AA.VV. - Blues Vol.1
DYEAR=2013
DGENRE=Blues
TTITLE0=Bo Diddley - I'm A Man
TTITLE1=James Brown - Please, Please, Please
TTITLE2=Muddy Waters - Rollin' Stone
TTITLE3=Guitar Slim - The Thing That I Used To Do
TTITLE4=Larry Williams - Jock-A-Mo (Iko Iko)
TTITLE5=Jimmy Whiterspoon - Trouble In Mind
TTITLE6=Big Joe turner - Honey Hush
TTITLE7=Lightning Hopkins - Thinkin' And Worryin'
TTITLE8=John Lee Hooker - Dimples
TTITLE9=Jimmy Reed - Big Boss Man
TTITLE10=Lowell Fulson - Reconsider Baby
TTITLE11=Muddy Waters - Hoochie Coochie Man
TTITLE12=T-Bone Walker - Call It Stormy Monday
TTITLE13=Howlin' Wolf - Smoke Stack Lightnin'
TTITLE14=Sonny Boy Williamson II - I Don't Know
TTITLE15=B.B. King - Blues At Midnight
TTITLE16=Buddy Guy - Ten Years Ago
TTITLE17=J.B. Lenoir - Mama Talk To Your Daughter
TTITLE18=Koko Taylor - Wang Dang Doodle
TTITLE19=Professor Longhair - Tipitina
TTITLE20=Junior Wells - Two-Headed Woman
TTITLE21=John Lee Hooker - Boogie Chillen' 
TTITLE22=Chuck Berry - Maybellene
TTITLE23=Ray Charles - I've Got A Woman
TTITLE24=Elmore James - Dust My Broom
TTITLE25=Jackie Brentson - Rocket 88
TTITLE26=Fats Domino - Goin' Home
TTITLE27=Freddie King - Hideaway
EXTD=YEAR: 2012
EXTT0=
EXTT1=
EXTT2=
EXTT3=
EXTT4=
EXTT5=
EXTT6=
EXTT7=
EXTT8=
EXTT9=
EXTT10=
EXTT11=
EXTT12=
EXTT13=
EXTT14=
EXTT15=
EXTT16=
EXTT17=
EXTT18=
EXTT19=
EXTT20=
EXTT21=
EXTT22=
EXTT23=
EXTT24=
EXTT25=
EXTT26=
EXTT27=
PLAYORDER=
